<?xml version="1.0" encoding="UTF-8" standalone="no"?>
<!DOCTYPE svg PUBLIC "-//W3C//DTD SVG 1.1//EN" "http://www.w3.org/Graphics/SVG/1.1/DTD/svg11.dtd">
<svg xmlns="http://www.w3.org/2000/svg" version="1.1" viewBox="0 0 1204 1740">
<path stroke="#7e3a39" stroke-width="2.00" fill="none" stroke-linecap="butt" vector-effect="non-scaling-stroke" d="
  M 284.88 411.24
  C 312.20 415.67 334.31 437.22 339.52 464.34
  Q 340.75 470.75 340.75 484.25
  Q 340.75 880.13 340.74 1276.02
  Q 340.74 1287.45 339.40 1293.75
  C 333.81 1319.89 312.88 1340.57 286.66 1345.54
  Q 280.28 1346.76 266.74 1346.75
  Q 170.31 1346.74 73.98 1346.75
  A 0.73 0.73 0.0 0 0 73.25 1347.48
  L 73.25 1680.75
  A 0.50 0.50 0.0 0 0 73.75 1681.25
  L 1143.00 1681.25
  Q 1143.50 1681.25 1143.50 1680.75
  L 1143.50 1347.25
  A 0.51 0.51 0.0 0 0 1142.99 1346.74
  Q 1045.59 1346.77 948.17 1346.74
  Q 935.62 1346.73 929.05 1345.35
  C 902.49 1339.74 881.59 1318.20 877.03 1291.45
  Q 876.00 1285.42 876.00 1271.50
  Q 876.00 878.16 876.00 484.81
  Q 876.00 471.26 877.20 464.89
  C 883.49 431.42 911.84 410.28 945.50 410.27
  Q 1044.31 410.23 1143.02 410.26
  A 0.49 0.48 -90.0 0 0 1143.50 409.77
  L 1143.50 76.25
  A 0.50 0.50 0.0 0 0 1143.00 75.75
  L 74.00 75.75
  A 0.75 0.75 0.0 0 0 73.25 76.50
  L 73.25 409.94
  A 0.33 0.33 0.0 0 0 73.58 410.27
  Q 169.25 410.19 264.93 410.30
  Q 279.16 410.32 284.88 411.24"
/>
<path fill="#13294b" d="
  M 1204.00 8.84
  L 1204.00 477.06
  L 943.31 477.19
  A 0.56 0.55 -0.0 0 0 942.75 477.74
  L 942.75 1279.53
  A 0.49 0.49 0.0 0 0 943.24 1280.02
  L 1204.00 1280.06
  L 1204.00 1740.00
  L 6.44 1740.00
  L 6.37 1280.59
  Q 6.37 1280.00 6.97 1280.00
  L 273.50 1280.00
  A 0.50 0.50 0.0 0 0 274.00 1279.50
  L 274.00 477.75
  A 0.50 0.50 0.0 0 0 273.50 477.25
  L 7.58 477.25
  Q 6.41 477.25 6.41 476.00
  L 6.40 9.44
  A 0.67 0.67 0.0 0 1 7.07 8.77
  L 1204.00 8.84
  Z
  M 284.88 411.24
  C 312.20 415.67 334.31 437.22 339.52 464.34
  Q 340.75 470.75 340.75 484.25
  Q 340.75 880.13 340.74 1276.02
  Q 340.74 1287.45 339.40 1293.75
  C 333.81 1319.89 312.88 1340.57 286.66 1345.54
  Q 280.28 1346.76 266.74 1346.75
  Q 170.31 1346.74 73.98 1346.75
  A 0.73 0.73 0.0 0 0 73.25 1347.48
  L 73.25 1680.75
  A 0.50 0.50 0.0 0 0 73.75 1681.25
  L 1143.00 1681.25
  Q 1143.50 1681.25 1143.50 1680.75
  L 1143.50 1347.25
  A 0.51 0.51 0.0 0 0 1142.99 1346.74
  Q 1045.59 1346.77 948.17 1346.74
  Q 935.62 1346.73 929.05 1345.35
  C 902.49 1339.74 881.59 1318.20 877.03 1291.45
  Q 876.00 1285.42 876.00 1271.50
  Q 876.00 878.16 876.00 484.81
  Q 876.00 471.26 877.20 464.89
  C 883.49 431.42 911.84 410.28 945.50 410.27
  Q 1044.31 410.23 1143.02 410.26
  A 0.49 0.48 -90.0 0 0 1143.50 409.77
  L 1143.50 76.25
  A 0.50 0.50 0.0 0 0 1143.00 75.75
  L 74.00 75.75
  A 0.75 0.75 0.0 0 0 73.25 76.50
  L 73.25 409.94
  A 0.33 0.33 0.0 0 0 73.58 410.27
  Q 169.25 410.19 264.93 410.30
  Q 279.16 410.32 284.88 411.24
  Z"
/>
<path fill="#e84a27" d="
  M 264.93 410.30
  Q 169.25 410.19 73.58 410.27
  A 0.33 0.33 0.0 0 1 73.25 409.94
  L 73.25 76.50
  A 0.75 0.75 0.0 0 1 74.00 75.75
  L 1143.00 75.75
  A 0.50 0.50 0.0 0 1 1143.50 76.25
  L 1143.50 409.77
  A 0.49 0.48 -90.0 0 1 1143.02 410.26
  Q 1044.31 410.23 945.50 410.27
  C 911.84 410.28 883.49 431.42 877.20 464.89
  Q 876.00 471.26 876.00 484.81
  Q 876.00 878.16 876.00 1271.50
  Q 876.00 1285.42 877.03 1291.45
  C 881.59 1318.20 902.49 1339.74 929.05 1345.35
  Q 935.62 1346.73 948.17 1346.74
  Q 1045.59 1346.77 1142.99 1346.74
  A 0.51 0.51 0.0 0 1 1143.50 1347.25
  L 1143.50 1680.75
  Q 1143.50 1681.25 1143.00 1681.25
  L 73.75 1681.25
  A 0.50 0.50 0.0 0 1 73.25 1680.75
  L 73.25 1347.48
  A 0.73 0.73 0.0 0 1 73.98 1346.75
  Q 170.31 1346.74 266.74 1346.75
  Q 280.28 1346.76 286.66 1345.54
  C 312.88 1340.57 333.81 1319.89 339.40 1293.75
  Q 340.74 1287.45 340.74 1276.02
  Q 340.75 880.13 340.75 484.25
  Q 340.75 470.75 339.52 464.34
  C 334.31 437.22 312.20 415.67 284.88 411.24
  Q 279.16 410.32 264.93 410.30
  Z"
/>
</svg>
